<svg xmlns="http://www.w3.org/2000/svg" xmlns:xlink="http://www.w3.org/1999/xlink" width="500" zoomAndPan="magnify" viewBox="0 0 375 374.999991" height="500" preserveAspectRatio="xMidYMid meet" version="1.2"><defs/><g id="d2a9ffcf9e"><g style="fill:#373643;fill-opacity:1;"><g transform="translate(8.986541, 207.248387)"><path style="stroke:none" d="M 0.546875 -11.796875 C 0.179688 -13.304688 0.546875 -14.503906 1.640625 -15.390625 C 2.734375 -16.273438 3.957031 -16.71875 5.3125 -16.71875 C 6.351562 -16.71875 7.273438 -16.46875 8.078125 -15.96875 C 8.890625 -15.476562 9.398438 -14.710938 9.609375 -13.671875 C 10.179688 -12.003906 11.257812 -10.710938 12.84375 -9.796875 C 14.4375 -8.890625 16.222656 -8.265625 18.203125 -7.921875 C 20.179688 -7.585938 22.03125 -7.421875 23.75 -7.421875 C 25.101562 -7.421875 26.585938 -7.523438 28.203125 -7.734375 C 29.816406 -7.941406 31.351562 -8.316406 32.8125 -8.859375 C 34.269531 -9.410156 35.46875 -10.179688 36.40625 -11.171875 C 37.34375 -12.160156 37.8125 -13.4375 37.8125 -15 C 37.8125 -16.664062 37.117188 -17.890625 35.734375 -18.671875 C 34.359375 -19.453125 32.601562 -20.007812 30.46875 -20.34375 C 28.332031 -20.6875 26.09375 -20.9375 23.75 -21.09375 C 21.09375 -21.300781 18.421875 -21.613281 15.734375 -22.03125 C 13.054688 -22.445312 10.609375 -23.125 8.390625 -24.0625 C 6.179688 -25 4.398438 -26.363281 3.046875 -28.15625 C 1.691406 -29.957031 1.015625 -32.34375 1.015625 -35.3125 C 1.015625 -37.957031 1.691406 -40.242188 3.046875 -42.171875 C 4.398438 -44.097656 6.171875 -45.671875 8.359375 -46.890625 C 10.546875 -48.117188 12.914062 -49.03125 15.46875 -49.625 C 18.019531 -50.226562 20.519531 -50.53125 22.96875 -50.53125 C 25.675781 -50.53125 28.515625 -50.21875 31.484375 -49.59375 C 34.453125 -48.96875 37.171875 -47.859375 39.640625 -46.265625 C 42.109375 -44.679688 43.941406 -42.457031 45.140625 -39.59375 C 45.554688 -38.144531 45.253906 -36.9375 44.234375 -35.96875 C 43.222656 -35.007812 42.039062 -34.53125 40.6875 -34.53125 C 39.851562 -34.53125 39.0625 -34.722656 38.3125 -35.109375 C 37.5625 -35.503906 37.03125 -36.039062 36.71875 -36.71875 C 36.09375 -38.320312 35 -39.515625 33.4375 -40.296875 C 31.875 -41.078125 30.15625 -41.582031 28.28125 -41.8125 C 26.40625 -42.050781 24.660156 -42.171875 23.046875 -42.171875 C 22.003906 -42.171875 20.765625 -42.066406 19.328125 -41.859375 C 17.898438 -41.648438 16.507812 -41.285156 15.15625 -40.765625 C 13.800781 -40.242188 12.664062 -39.53125 11.75 -38.625 C 10.84375 -37.71875 10.390625 -36.585938 10.390625 -35.234375 C 10.390625 -33.566406 11.039062 -32.316406 12.34375 -31.484375 C 13.644531 -30.648438 15.375 -30.078125 17.53125 -29.765625 C 19.695312 -29.453125 22.054688 -29.191406 24.609375 -28.984375 C 27.316406 -28.722656 30.007812 -28.421875 32.6875 -28.078125 C 35.375 -27.742188 37.804688 -27.144531 39.984375 -26.28125 C 42.171875 -25.425781 43.914062 -24.125 45.21875 -22.375 C 46.519531 -20.632812 47.171875 -18.203125 47.171875 -15.078125 C 47.171875 -11.953125 46.425781 -9.375 44.9375 -7.34375 C 43.457031 -5.3125 41.519531 -3.695312 39.125 -2.5 C 36.738281 -1.300781 34.191406 -0.457031 31.484375 0.03125 C 28.773438 0.53125 26.195312 0.78125 23.75 0.78125 C 21.71875 0.78125 19.503906 0.582031 17.109375 0.1875 C 14.710938 -0.195312 12.378906 -0.867188 10.109375 -1.828125 C 7.847656 -2.796875 5.859375 -4.085938 4.140625 -5.703125 C 2.421875 -7.316406 1.222656 -9.347656 0.546875 -11.796875 Z M 0.546875 -11.796875 "/></g></g><g style="fill:#373643;fill-opacity:1;"><g transform="translate(56.470341, 207.248387)"><path style="stroke:none" d="M 36.328125 -39.75 C 37.679688 -39.75 38.757812 -39.375 39.5625 -38.625 C 40.363281 -37.875 40.765625 -36.898438 40.765625 -35.703125 L 40.765625 -4.0625 C 40.765625 -2.863281 40.363281 -1.882812 39.5625 -1.125 C 38.757812 -0.375 37.679688 0 36.328125 0 C 35.023438 0 34.007812 -0.296875 33.28125 -0.890625 C 32.550781 -1.492188 32.109375 -2.289062 31.953125 -3.28125 C 30.179688 -1.875 28.203125 -0.84375 26.015625 -0.1875 C 23.828125 0.457031 21.742188 0.78125 19.765625 0.78125 C 16.015625 0.78125 12.769531 -0.078125 10.03125 -1.796875 C 7.300781 -3.515625 5.207031 -5.9375 3.75 -9.0625 C 2.289062 -12.1875 1.5625 -15.832031 1.5625 -20 C 1.5625 -24.0625 2.367188 -27.628906 3.984375 -30.703125 C 5.597656 -33.773438 7.847656 -36.179688 10.734375 -37.921875 C 13.628906 -39.660156 16.976562 -40.53125 20.78125 -40.53125 C 22.445312 -40.53125 24.296875 -40.21875 26.328125 -39.59375 C 28.359375 -38.976562 30.234375 -37.992188 31.953125 -36.640625 C 32.160156 -37.578125 32.628906 -38.328125 33.359375 -38.890625 C 34.085938 -39.460938 35.078125 -39.75 36.328125 -39.75 Z M 20.703125 -7.109375 C 22.992188 -7.109375 25.207031 -7.613281 27.34375 -8.625 C 29.476562 -9.644531 30.988281 -11.144531 31.875 -13.125 L 31.875 -26.640625 C 30.882812 -28.566406 29.398438 -30.050781 27.421875 -31.09375 C 25.441406 -32.132812 23.4375 -32.65625 21.40625 -32.65625 C 18.125 -32.65625 15.476562 -31.457031 13.46875 -29.0625 C 11.46875 -26.664062 10.46875 -23.617188 10.46875 -19.921875 C 10.46875 -16.066406 11.40625 -12.96875 13.28125 -10.625 C 15.15625 -8.28125 17.628906 -7.109375 20.703125 -7.109375 Z M 20.703125 -7.109375 "/></g></g><g style="fill:#373643;fill-opacity:1;"><g transform="translate(101.611154, 207.248387)"><path style="stroke:none" d="M 26.328125 -40.53125 C 29.972656 -40.53125 33.066406 -39.738281 35.609375 -38.15625 C 38.160156 -36.570312 40.113281 -34.375 41.46875 -31.5625 C 42.820312 -28.75 43.5 -25.46875 43.5 -21.71875 L 43.5 -4.0625 C 43.5 -2.863281 43.109375 -1.882812 42.328125 -1.125 C 41.546875 -0.375 40.453125 0 39.046875 0 C 37.753906 0 36.691406 -0.375 35.859375 -1.125 C 35.023438 -1.882812 34.609375 -2.863281 34.609375 -4.0625 L 34.609375 -21.875 C 34.609375 -25.101562 33.835938 -27.71875 32.296875 -29.71875 C 30.765625 -31.726562 28.332031 -32.734375 25 -32.734375 C 24.007812 -32.734375 22.820312 -32.457031 21.4375 -31.90625 C 20.0625 -31.363281 18.707031 -30.546875 17.375 -29.453125 C 16.050781 -28.359375 14.957031 -26.976562 14.09375 -25.3125 C 13.238281 -23.644531 12.8125 -21.664062 12.8125 -19.375 L 12.8125 -3.984375 C 12.8125 -1.328125 11.378906 0 8.515625 0 C 7.160156 0 6.050781 -0.347656 5.1875 -1.046875 C 4.332031 -1.753906 3.90625 -2.734375 3.90625 -3.984375 L 3.90625 -35.78125 C 3.90625 -37.082031 4.359375 -38.066406 5.265625 -38.734375 C 6.179688 -39.410156 7.210938 -39.75 8.359375 -39.75 C 9.453125 -39.75 10.46875 -39.410156 11.40625 -38.734375 C 12.34375 -38.066406 12.8125 -37.132812 12.8125 -35.9375 L 12.8125 -35.390625 C 15.050781 -37.472656 17.367188 -38.847656 19.765625 -39.515625 C 22.160156 -40.191406 24.347656 -40.53125 26.328125 -40.53125 Z M 26.328125 -40.53125 "/></g></g><g style="fill:#373643;fill-opacity:1;"><g transform="translate(149.016848, 207.248387)"><path style="stroke:none" d="M 36.40625 -50.53125 C 37.5 -50.53125 38.523438 -50.21875 39.484375 -49.59375 C 40.441406 -48.96875 40.921875 -47.976562 40.921875 -46.625 L 40.921875 -3.984375 C 40.921875 -1.328125 39.414062 0 36.40625 0 C 33.695312 0 32.289062 -1.25 32.1875 -3.75 C 30.519531 -2.289062 28.644531 -1.179688 26.5625 -0.421875 C 24.476562 0.328125 22.5 0.703125 20.625 0.703125 C 16.71875 0.703125 13.34375 -0.179688 10.5 -1.953125 C 7.664062 -3.722656 5.492188 -6.195312 3.984375 -9.375 C 2.472656 -12.550781 1.71875 -16.195312 1.71875 -20.3125 C 1.71875 -24.269531 2.523438 -27.757812 4.140625 -30.78125 C 5.753906 -33.800781 8.003906 -36.179688 10.890625 -37.921875 C 13.785156 -39.660156 17.132812 -40.53125 20.9375 -40.53125 C 22.65625 -40.53125 24.503906 -40.191406 26.484375 -39.515625 C 28.460938 -38.847656 30.3125 -37.835938 32.03125 -36.484375 L 32.03125 -46.625 C 32.03125 -47.976562 32.484375 -48.96875 33.390625 -49.59375 C 34.304688 -50.21875 35.3125 -50.53125 36.40625 -50.53125 Z M 20.859375 -7.1875 C 23.460938 -7.1875 25.816406 -7.769531 27.921875 -8.9375 C 30.035156 -10.113281 31.457031 -11.820312 32.1875 -14.0625 L 32.109375 -26.09375 C 31.222656 -28.226562 29.773438 -29.851562 27.765625 -30.96875 C 25.765625 -32.09375 23.695312 -32.65625 21.5625 -32.65625 C 18.28125 -32.65625 15.632812 -31.46875 13.625 -29.09375 C 11.625 -26.726562 10.625 -23.773438 10.625 -20.234375 C 10.625 -16.429688 11.5625 -13.304688 13.4375 -10.859375 C 15.3125 -8.410156 17.785156 -7.1875 20.859375 -7.1875 Z M 20.859375 -7.1875 "/></g></g><g style="fill:#373643;fill-opacity:1;"><g transform="translate(194.23575, 207.248387)"><path style="stroke:none" d="M 22.34375 -6.953125 C 23.851562 -6.953125 25.335938 -7.160156 26.796875 -7.578125 C 28.253906 -7.992188 29.609375 -8.695312 30.859375 -9.6875 C 32.054688 -10.78125 33.226562 -11.285156 34.375 -11.203125 C 35.519531 -11.128906 36.46875 -10.710938 37.21875 -9.953125 C 37.976562 -9.203125 38.359375 -8.265625 38.359375 -7.140625 C 38.359375 -6.023438 37.8125 -4.945312 36.71875 -3.90625 C 34.894531 -2.132812 32.734375 -0.894531 30.234375 -0.1875 C 27.734375 0.507812 25.179688 0.832031 22.578125 0.78125 C 18.515625 0.78125 14.929688 -0.0507812 11.828125 -1.71875 C 8.734375 -3.382812 6.3125 -5.703125 4.5625 -8.671875 C 2.820312 -11.640625 1.953125 -15.078125 1.953125 -18.984375 C 1.953125 -23.253906 2.785156 -27.003906 4.453125 -30.234375 C 6.117188 -33.460938 8.472656 -35.984375 11.515625 -37.796875 C 14.566406 -39.617188 18.175781 -40.53125 22.34375 -40.53125 C 26.507812 -40.53125 30.050781 -39.6875 32.96875 -38 C 35.882812 -36.3125 38.109375 -33.941406 39.640625 -30.890625 C 41.171875 -27.847656 41.9375 -24.296875 41.9375 -20.234375 C 41.9375 -18.929688 41.675781 -17.820312 41.15625 -16.90625 C 40.632812 -16 39.257812 -15.546875 37.03125 -15.546875 L 11.015625 -15.546875 C 11.742188 -12.992188 13.125 -10.921875 15.15625 -9.328125 C 17.1875 -7.742188 19.582031 -6.953125 22.34375 -6.953125 Z M 22.421875 -32.8125 C 19.398438 -32.8125 16.875 -31.859375 14.84375 -29.953125 C 12.8125 -28.054688 11.507812 -25.570312 10.9375 -22.5 L 33.671875 -22.5 C 33.410156 -25.570312 32.394531 -28.054688 30.625 -29.953125 C 28.851562 -31.859375 26.117188 -32.8125 22.421875 -32.8125 Z M 22.421875 -32.8125 "/></g></g><g style="fill:#373643;fill-opacity:1;"><g transform="translate(239.610866, 207.248387)"><path style="stroke:none" d="M 0.078125 -33.90625 C -0.285156 -34.945312 -0.300781 -35.910156 0.03125 -36.796875 C 0.375 -37.679688 0.945312 -38.394531 1.75 -38.9375 C 2.5625 -39.476562 3.410156 -39.75 4.296875 -39.75 C 5.234375 -39.75 6.050781 -39.503906 6.75 -39.015625 C 7.457031 -38.523438 7.992188 -37.863281 8.359375 -37.03125 L 20.3125 -12.8125 L 32.265625 -37.109375 C 32.734375 -38.046875 33.34375 -38.71875 34.09375 -39.125 C 34.851562 -39.539062 35.648438 -39.75 36.484375 -39.75 C 37.421875 -39.75 38.265625 -39.503906 39.015625 -39.015625 C 39.765625 -38.523438 40.28125 -37.847656 40.5625 -36.984375 C 40.851562 -36.128906 40.710938 -35.128906 40.140625 -33.984375 L 24.21875 -1.640625 C 23.851562 -0.960938 23.304688 -0.390625 22.578125 0.078125 C 21.847656 0.546875 21.039062 0.78125 20.15625 0.78125 C 18.4375 0.78125 17.132812 0.0234375 16.25 -1.484375 Z M 0.078125 -33.90625 "/></g></g><g style="fill:#373643;fill-opacity:1;"><g transform="translate(279.987616, 207.248387)"><path style="stroke:none" d="M 22.34375 -6.953125 C 23.851562 -6.953125 25.335938 -7.160156 26.796875 -7.578125 C 28.253906 -7.992188 29.609375 -8.695312 30.859375 -9.6875 C 32.054688 -10.78125 33.226562 -11.285156 34.375 -11.203125 C 35.519531 -11.128906 36.46875 -10.710938 37.21875 -9.953125 C 37.976562 -9.203125 38.359375 -8.265625 38.359375 -7.140625 C 38.359375 -6.023438 37.8125 -4.945312 36.71875 -3.90625 C 34.894531 -2.132812 32.734375 -0.894531 30.234375 -0.1875 C 27.734375 0.507812 25.179688 0.832031 22.578125 0.78125 C 18.515625 0.78125 14.929688 -0.0507812 11.828125 -1.71875 C 8.734375 -3.382812 6.3125 -5.703125 4.5625 -8.671875 C 2.820312 -11.640625 1.953125 -15.078125 1.953125 -18.984375 C 1.953125 -23.253906 2.785156 -27.003906 4.453125 -30.234375 C 6.117188 -33.460938 8.472656 -35.984375 11.515625 -37.796875 C 14.566406 -39.617188 18.175781 -40.53125 22.34375 -40.53125 C 26.507812 -40.53125 30.050781 -39.6875 32.96875 -38 C 35.882812 -36.3125 38.109375 -33.941406 39.640625 -30.890625 C 41.171875 -27.847656 41.9375 -24.296875 41.9375 -20.234375 C 41.9375 -18.929688 41.675781 -17.820312 41.15625 -16.90625 C 40.632812 -16 39.257812 -15.546875 37.03125 -15.546875 L 11.015625 -15.546875 C 11.742188 -12.992188 13.125 -10.921875 15.15625 -9.328125 C 17.1875 -7.742188 19.582031 -6.953125 22.34375 -6.953125 Z M 22.421875 -32.8125 C 19.398438 -32.8125 16.875 -31.859375 14.84375 -29.953125 C 12.8125 -28.054688 11.507812 -25.570312 10.9375 -22.5 L 33.671875 -22.5 C 33.410156 -25.570312 32.394531 -28.054688 30.625 -29.953125 C 28.851562 -31.859375 26.117188 -32.8125 22.421875 -32.8125 Z M 22.421875 -32.8125 "/></g></g><g style="fill:#373643;fill-opacity:1;"><g transform="translate(325.362732, 207.248387)"><path style="stroke:none" d="M 36.09375 -7.421875 C 37.132812 -6.273438 37.613281 -5.128906 37.53125 -3.984375 C 37.457031 -2.835938 37.03125 -1.882812 36.25 -1.125 C 35.46875 -0.375 34.53125 0 33.4375 0 C 32.238281 0 31.066406 -0.570312 29.921875 -1.71875 L 18.75 -13.828125 L 7.65625 -1.875 C 6.457031 -0.625 5.15625 0 3.75 0 C 2.707031 0 1.796875 -0.347656 1.015625 -1.046875 C 0.234375 -1.753906 -0.179688 -2.640625 -0.234375 -3.703125 C -0.285156 -4.773438 0.207031 -5.882812 1.25 -7.03125 L 13.28125 -20 L 1.5625 -32.65625 C 0.519531 -33.800781 0.0234375 -34.921875 0.078125 -36.015625 C 0.128906 -37.109375 0.554688 -38.003906 1.359375 -38.703125 C 2.171875 -39.398438 3.125 -39.75 4.21875 -39.75 C 4.894531 -39.75 5.582031 -39.59375 6.28125 -39.28125 C 6.988281 -38.96875 7.679688 -38.453125 8.359375 -37.734375 L 18.90625 -26.40625 L 29.609375 -37.890625 C 30.234375 -38.554688 30.882812 -39.03125 31.5625 -39.3125 C 32.238281 -39.601562 32.890625 -39.75 33.515625 -39.75 C 34.609375 -39.75 35.546875 -39.410156 36.328125 -38.734375 C 37.109375 -38.066406 37.523438 -37.195312 37.578125 -36.125 C 37.628906 -35.0625 37.109375 -33.929688 36.015625 -32.734375 L 24.296875 -20.15625 Z M 36.09375 -7.421875 "/></g></g><g style="fill:#373643;fill-opacity:1;"><g transform="translate(150.631401, 235.23325)"><path style="stroke:none" d="M 6.859375 -17.25 C 9.765625 -17.25 12.007812 -16.484375 13.59375 -14.953125 C 15.175781 -13.429688 15.96875 -11.3125 15.96875 -8.59375 C 15.96875 -5.875 15.175781 -3.757812 13.59375 -2.25 C 12.007812 -0.75 9.765625 0 6.859375 0 L 2.015625 0 L 2.015625 -17.25 Z M 6.859375 -0.9375 C 9.460938 -0.9375 11.441406 -1.609375 12.796875 -2.953125 C 14.148438 -4.304688 14.828125 -6.1875 14.828125 -8.59375 C 14.828125 -11.019531 14.148438 -12.910156 12.796875 -14.265625 C 11.441406 -15.628906 9.460938 -16.3125 6.859375 -16.3125 L 3.125 -16.3125 L 3.125 -0.9375 Z M 6.859375 -0.9375 "/></g></g><g style="fill:#373643;fill-opacity:1;"><g transform="translate(166.99127, 235.23325)"><path style="stroke:none" d="M 3.125 -10.59375 C 3.445312 -11.570312 4.023438 -12.316406 4.859375 -12.828125 C 5.691406 -13.347656 6.757812 -13.609375 8.0625 -13.609375 L 8.0625 -12.453125 L 7.6875 -12.453125 C 6.375 -12.453125 5.285156 -12.078125 4.421875 -11.328125 C 3.554688 -10.585938 3.125 -9.375 3.125 -7.6875 L 3.125 0 L 2.015625 0 L 2.015625 -13.34375 L 3.125 -13.34375 Z M 3.125 -10.59375 "/></g></g><g style="fill:#373643;fill-opacity:1;"><g transform="translate(174.655145, 235.23325)"><path style="stroke:none" d="M 2.578125 -16.3125 C 2.316406 -16.3125 2.09375 -16.394531 1.90625 -16.5625 C 1.726562 -16.738281 1.640625 -16.972656 1.640625 -17.265625 C 1.640625 -17.546875 1.726562 -17.773438 1.90625 -17.953125 C 2.09375 -18.128906 2.316406 -18.21875 2.578125 -18.21875 C 2.835938 -18.21875 3.054688 -18.128906 3.234375 -17.953125 C 3.421875 -17.773438 3.515625 -17.546875 3.515625 -17.265625 C 3.515625 -16.972656 3.421875 -16.738281 3.234375 -16.5625 C 3.054688 -16.394531 2.835938 -16.3125 2.578125 -16.3125 Z M 3.125 -13.34375 L 3.125 0 L 2.015625 0 L 2.015625 -13.34375 Z M 3.125 -13.34375 "/></g></g><g style="fill:#373643;fill-opacity:1;"><g transform="translate(178.879922, 235.23325)"><path style="stroke:none" d="M 6.53125 -1.203125 L 11.453125 -13.34375 L 12.625 -13.34375 L 7.09375 0 L 5.9375 0 L 0.421875 -13.34375 L 1.625 -13.34375 Z M 6.53125 -1.203125 "/></g></g><g style="fill:#373643;fill-opacity:1;"><g transform="translate(190.990058, 235.23325)"><path style="stroke:none" d="M 14.03125 -7.5625 C 14.03125 -6.976562 14.007812 -6.535156 13.96875 -6.234375 L 2.453125 -6.234375 C 2.484375 -5.046875 2.742188 -4.039062 3.234375 -3.21875 C 3.734375 -2.394531 4.382812 -1.78125 5.1875 -1.375 C 5.988281 -0.96875 6.863281 -0.765625 7.8125 -0.765625 C 9.125 -0.765625 10.21875 -1.085938 11.09375 -1.734375 C 11.976562 -2.378906 12.535156 -3.257812 12.765625 -4.375 L 13.921875 -4.375 C 13.660156 -3.007812 12.988281 -1.90625 11.90625 -1.0625 C 10.832031 -0.21875 9.46875 0.203125 7.8125 0.203125 C 6.5625 0.203125 5.445312 -0.0703125 4.46875 -0.625 C 3.488281 -1.1875 2.71875 -1.988281 2.15625 -3.03125 C 1.601562 -4.070312 1.328125 -5.289062 1.328125 -6.6875 C 1.328125 -8.070312 1.597656 -9.28125 2.140625 -10.3125 C 2.691406 -11.34375 3.457031 -12.132812 4.4375 -12.6875 C 5.425781 -13.238281 6.550781 -13.515625 7.8125 -13.515625 C 9.09375 -13.515625 10.203125 -13.238281 11.140625 -12.6875 C 12.078125 -12.132812 12.789062 -11.40625 13.28125 -10.5 C 13.78125 -9.59375 14.03125 -8.613281 14.03125 -7.5625 Z M 12.921875 -7.140625 C 12.972656 -8.328125 12.765625 -9.328125 12.296875 -10.140625 C 11.828125 -10.960938 11.191406 -11.570312 10.390625 -11.96875 C 9.585938 -12.375 8.71875 -12.578125 7.78125 -12.578125 C 6.851562 -12.578125 5.988281 -12.375 5.1875 -11.96875 C 4.394531 -11.570312 3.75 -10.960938 3.25 -10.140625 C 2.75 -9.328125 2.484375 -8.328125 2.453125 -7.140625 Z M 12.921875 -7.140625 "/></g></g><g style="fill:#373643;fill-opacity:1;"><g transform="translate(205.409302, 235.23325)"><path style="stroke:none" d="M 8.03125 -13.609375 C 9.625 -13.609375 10.914062 -13.117188 11.90625 -12.140625 C 12.90625 -11.171875 13.40625 -9.726562 13.40625 -7.8125 L 13.40625 0 L 12.328125 0 L 12.328125 -7.734375 C 12.328125 -9.328125 11.925781 -10.546875 11.125 -11.390625 C 10.320312 -12.234375 9.234375 -12.65625 7.859375 -12.65625 C 6.421875 -12.65625 5.269531 -12.195312 4.40625 -11.28125 C 3.550781 -10.363281 3.125 -9.003906 3.125 -7.203125 L 3.125 0 L 2.015625 0 L 2.015625 -13.34375 L 3.125 -13.34375 L 3.125 -10.515625 C 3.5 -11.515625 4.125 -12.28125 5 -12.8125 C 5.875 -13.34375 6.882812 -13.609375 8.03125 -13.609375 Z M 8.03125 -13.609375 "/></g></g><g style="fill:#373643;fill-opacity:1;"><g transform="translate(219.779402, 235.23325)"><path style="stroke:none" d=""/></g></g><g style="fill:#373643;fill-opacity:1;"><g transform="translate(225.772864, 235.23325)"><path style="stroke:none" d="M 3.125 -9.828125 C 3.53125 -10.910156 4.222656 -11.796875 5.203125 -12.484375 C 6.191406 -13.171875 7.378906 -13.515625 8.765625 -13.515625 C 10.015625 -13.515625 11.125 -13.234375 12.09375 -12.671875 C 13.070312 -12.117188 13.832031 -11.328125 14.375 -10.296875 C 14.925781 -9.265625 15.203125 -8.0625 15.203125 -6.6875 C 15.203125 -5.3125 14.925781 -4.101562 14.375 -3.0625 C 13.832031 -2.019531 13.070312 -1.210938 12.09375 -0.640625 C 11.125 -0.078125 10.015625 0.203125 8.765625 0.203125 C 7.378906 0.203125 6.1875 -0.140625 5.1875 -0.828125 C 4.195312 -1.515625 3.507812 -2.398438 3.125 -3.484375 L 3.125 0 L 2.015625 0 L 2.015625 -18.171875 L 3.125 -18.171875 Z M 14.078125 -6.6875 C 14.078125 -7.894531 13.847656 -8.941406 13.390625 -9.828125 C 12.929688 -10.710938 12.285156 -11.382812 11.453125 -11.84375 C 10.628906 -12.3125 9.675781 -12.546875 8.59375 -12.546875 C 7.5625 -12.546875 6.628906 -12.304688 5.796875 -11.828125 C 4.960938 -11.347656 4.304688 -10.660156 3.828125 -9.765625 C 3.359375 -8.867188 3.125 -7.84375 3.125 -6.6875 C 3.125 -5.5 3.359375 -4.457031 3.828125 -3.5625 C 4.304688 -2.675781 4.960938 -1.988281 5.796875 -1.5 C 6.628906 -1.019531 7.5625 -0.78125 8.59375 -0.78125 C 9.675781 -0.78125 10.628906 -1.015625 11.453125 -1.484375 C 12.285156 -1.960938 12.929688 -2.644531 13.390625 -3.53125 C 13.847656 -4.414062 14.078125 -5.46875 14.078125 -6.6875 Z M 14.078125 -6.6875 "/></g></g><g style="fill:#373643;fill-opacity:1;"><g transform="translate(241.371226, 235.23325)"><path style="stroke:none" d="M 12.421875 -13.34375 L 4.671875 6.265625 L 3.53125 6.265625 L 6.015625 0 L 0.421875 -13.34375 L 1.625 -13.34375 L 6.625 -1.234375 L 11.296875 -13.34375 Z M 12.421875 -13.34375 "/></g></g><g style="fill:#373643;fill-opacity:1;"><g transform="translate(253.309407, 235.23325)"><path style="stroke:none" d=""/></g></g><g style="fill:#373643;fill-opacity:1;"><g transform="translate(259.302869, 235.23325)"><path style="stroke:none" d="M 12.453125 -12.375 C 12.453125 -10.851562 11.976562 -9.671875 11.03125 -8.828125 C 10.082031 -7.984375 8.671875 -7.5625 6.796875 -7.5625 L 3.125 -7.5625 L 3.125 0 L 2.015625 0 L 2.015625 -17.25 L 6.796875 -17.25 C 8.703125 -17.25 10.117188 -16.804688 11.046875 -15.921875 C 11.984375 -15.046875 12.453125 -13.863281 12.453125 -12.375 Z M 6.796875 -8.546875 C 9.828125 -8.546875 11.34375 -9.820312 11.34375 -12.375 C 11.34375 -13.632812 10.984375 -14.597656 10.265625 -15.265625 C 9.546875 -15.929688 8.390625 -16.265625 6.796875 -16.265625 L 3.125 -16.265625 L 3.125 -8.546875 Z M 6.796875 -8.546875 "/></g></g><g style="fill:#373643;fill-opacity:1;"><g transform="translate(271.781472, 235.23325)"><path style="stroke:none" d="M 7.890625 0.203125 C 6.640625 0.203125 5.515625 -0.0703125 4.515625 -0.625 C 3.515625 -1.1875 2.734375 -1.988281 2.171875 -3.03125 C 1.609375 -4.070312 1.328125 -5.289062 1.328125 -6.6875 C 1.328125 -8.0625 1.613281 -9.265625 2.1875 -10.296875 C 2.757812 -11.335938 3.546875 -12.132812 4.546875 -12.6875 C 5.554688 -13.238281 6.6875 -13.515625 7.9375 -13.515625 C 9.175781 -13.515625 10.296875 -13.238281 11.296875 -12.6875 C 12.296875 -12.132812 13.078125 -11.34375 13.640625 -10.3125 C 14.203125 -9.28125 14.484375 -8.070312 14.484375 -6.6875 C 14.484375 -5.289062 14.195312 -4.070312 13.625 -3.03125 C 13.050781 -1.988281 12.257812 -1.1875 11.25 -0.625 C 10.25 -0.0703125 9.128906 0.203125 7.890625 0.203125 Z M 7.890625 -0.78125 C 8.847656 -0.78125 9.75 -1 10.59375 -1.4375 C 11.4375 -1.875 12.113281 -2.53125 12.625 -3.40625 C 13.132812 -4.289062 13.390625 -5.382812 13.390625 -6.6875 C 13.390625 -7.957031 13.132812 -9.035156 12.625 -9.921875 C 12.113281 -10.804688 11.441406 -11.460938 10.609375 -11.890625 C 9.773438 -12.328125 8.875 -12.546875 7.90625 -12.546875 C 6.9375 -12.546875 6.039062 -12.328125 5.21875 -11.890625 C 4.394531 -11.460938 3.726562 -10.804688 3.21875 -9.921875 C 2.707031 -9.035156 2.453125 -7.957031 2.453125 -6.6875 C 2.453125 -5.382812 2.703125 -4.289062 3.203125 -3.40625 C 3.703125 -2.53125 4.363281 -1.875 5.1875 -1.4375 C 6.019531 -1 6.921875 -0.78125 7.890625 -0.78125 Z M 7.890625 -0.78125 "/></g></g><g style="fill:#373643;fill-opacity:1;"><g transform="translate(286.692011, 235.23325)"><path style="stroke:none" d="M 6.453125 0.203125 C 4.960938 0.203125 3.75 -0.125 2.8125 -0.78125 C 1.875 -1.4375 1.347656 -2.375 1.234375 -3.59375 L 2.359375 -3.59375 C 2.441406 -2.71875 2.835938 -2.023438 3.546875 -1.515625 C 4.265625 -1.015625 5.234375 -0.765625 6.453125 -0.765625 C 7.472656 -0.765625 8.28125 -1.019531 8.875 -1.53125 C 9.476562 -2.050781 9.78125 -2.6875 9.78125 -3.4375 C 9.78125 -3.957031 9.617188 -4.382812 9.296875 -4.71875 C 8.972656 -5.0625 8.570312 -5.320312 8.09375 -5.5 C 7.625 -5.675781 6.984375 -5.875 6.171875 -6.09375 C 5.179688 -6.351562 4.382812 -6.609375 3.78125 -6.859375 C 3.175781 -7.117188 2.660156 -7.5 2.234375 -8 C 1.804688 -8.507812 1.59375 -9.191406 1.59375 -10.046875 C 1.59375 -10.671875 1.78125 -11.25 2.15625 -11.78125 C 2.53125 -12.3125 3.050781 -12.734375 3.71875 -13.046875 C 4.394531 -13.359375 5.160156 -13.515625 6.015625 -13.515625 C 7.410156 -13.515625 8.535156 -13.164062 9.390625 -12.46875 C 10.253906 -11.769531 10.71875 -10.804688 10.78125 -9.578125 L 9.671875 -9.578125 C 9.628906 -10.460938 9.285156 -11.179688 8.640625 -11.734375 C 8.003906 -12.296875 7.125 -12.578125 6 -12.578125 C 5.039062 -12.578125 4.25 -12.332031 3.625 -11.84375 C 3.007812 -11.351562 2.703125 -10.753906 2.703125 -10.046875 C 2.703125 -9.421875 2.878906 -8.914062 3.234375 -8.53125 C 3.585938 -8.144531 4.019531 -7.847656 4.53125 -7.640625 C 5.050781 -7.441406 5.734375 -7.226562 6.578125 -7 C 7.515625 -6.75 8.265625 -6.503906 8.828125 -6.265625 C 9.390625 -6.035156 9.867188 -5.691406 10.265625 -5.234375 C 10.660156 -4.785156 10.859375 -4.1875 10.859375 -3.4375 C 10.859375 -2.75 10.671875 -2.125 10.296875 -1.5625 C 9.921875 -1.007812 9.394531 -0.578125 8.71875 -0.265625 C 8.050781 0.046875 7.296875 0.203125 6.453125 0.203125 Z M 6.453125 0.203125 "/></g></g><g style="fill:#373643;fill-opacity:1;"><g transform="translate(297.966941, 235.23325)"><path style="stroke:none" d="M 6.453125 0.203125 C 4.960938 0.203125 3.75 -0.125 2.8125 -0.78125 C 1.875 -1.4375 1.347656 -2.375 1.234375 -3.59375 L 2.359375 -3.59375 C 2.441406 -2.71875 2.835938 -2.023438 3.546875 -1.515625 C 4.265625 -1.015625 5.234375 -0.765625 6.453125 -0.765625 C 7.472656 -0.765625 8.28125 -1.019531 8.875 -1.53125 C 9.476562 -2.050781 9.78125 -2.6875 9.78125 -3.4375 C 9.78125 -3.957031 9.617188 -4.382812 9.296875 -4.71875 C 8.972656 -5.0625 8.570312 -5.320312 8.09375 -5.5 C 7.625 -5.675781 6.984375 -5.875 6.171875 -6.09375 C 5.179688 -6.351562 4.382812 -6.609375 3.78125 -6.859375 C 3.175781 -7.117188 2.660156 -7.5 2.234375 -8 C 1.804688 -8.507812 1.59375 -9.191406 1.59375 -10.046875 C 1.59375 -10.671875 1.78125 -11.25 2.15625 -11.78125 C 2.53125 -12.3125 3.050781 -12.734375 3.71875 -13.046875 C 4.394531 -13.359375 5.160156 -13.515625 6.015625 -13.515625 C 7.410156 -13.515625 8.535156 -13.164062 9.390625 -12.46875 C 10.253906 -11.769531 10.71875 -10.804688 10.78125 -9.578125 L 9.671875 -9.578125 C 9.628906 -10.460938 9.285156 -11.179688 8.640625 -11.734375 C 8.003906 -12.296875 7.125 -12.578125 6 -12.578125 C 5.039062 -12.578125 4.25 -12.332031 3.625 -11.84375 C 3.007812 -11.351562 2.703125 -10.753906 2.703125 -10.046875 C 2.703125 -9.421875 2.878906 -8.914062 3.234375 -8.53125 C 3.585938 -8.144531 4.019531 -7.847656 4.53125 -7.640625 C 5.050781 -7.441406 5.734375 -7.226562 6.578125 -7 C 7.515625 -6.75 8.265625 -6.503906 8.828125 -6.265625 C 9.390625 -6.035156 9.867188 -5.691406 10.265625 -5.234375 C 10.660156 -4.785156 10.859375 -4.1875 10.859375 -3.4375 C 10.859375 -2.75 10.671875 -2.125 10.296875 -1.5625 C 9.921875 -1.007812 9.394531 -0.578125 8.71875 -0.265625 C 8.050781 0.046875 7.296875 0.203125 6.453125 0.203125 Z M 6.453125 0.203125 "/></g></g><g style="fill:#373643;fill-opacity:1;"><g transform="translate(309.24187, 235.23325)"><path style="stroke:none" d="M 2.578125 -16.3125 C 2.316406 -16.3125 2.09375 -16.394531 1.90625 -16.5625 C 1.726562 -16.738281 1.640625 -16.972656 1.640625 -17.265625 C 1.640625 -17.546875 1.726562 -17.773438 1.90625 -17.953125 C 2.09375 -18.128906 2.316406 -18.21875 2.578125 -18.21875 C 2.835938 -18.21875 3.054688 -18.128906 3.234375 -17.953125 C 3.421875 -17.773438 3.515625 -17.546875 3.515625 -17.265625 C 3.515625 -16.972656 3.421875 -16.738281 3.234375 -16.5625 C 3.054688 -16.394531 2.835938 -16.3125 2.578125 -16.3125 Z M 3.125 -13.34375 L 3.125 0 L 2.015625 0 L 2.015625 -13.34375 Z M 3.125 -13.34375 "/></g></g><g style="fill:#373643;fill-opacity:1;"><g transform="translate(313.466647, 235.23325)"><path style="stroke:none" d="M 3.125 -9.828125 C 3.53125 -10.910156 4.222656 -11.796875 5.203125 -12.484375 C 6.191406 -13.171875 7.378906 -13.515625 8.765625 -13.515625 C 10.015625 -13.515625 11.125 -13.234375 12.09375 -12.671875 C 13.070312 -12.117188 13.832031 -11.328125 14.375 -10.296875 C 14.925781 -9.265625 15.203125 -8.0625 15.203125 -6.6875 C 15.203125 -5.3125 14.925781 -4.101562 14.375 -3.0625 C 13.832031 -2.019531 13.070312 -1.210938 12.09375 -0.640625 C 11.125 -0.078125 10.015625 0.203125 8.765625 0.203125 C 7.378906 0.203125 6.1875 -0.140625 5.1875 -0.828125 C 4.195312 -1.515625 3.507812 -2.398438 3.125 -3.484375 L 3.125 0 L 2.015625 0 L 2.015625 -18.171875 L 3.125 -18.171875 Z M 14.078125 -6.6875 C 14.078125 -7.894531 13.847656 -8.941406 13.390625 -9.828125 C 12.929688 -10.710938 12.285156 -11.382812 11.453125 -11.84375 C 10.628906 -12.3125 9.675781 -12.546875 8.59375 -12.546875 C 7.5625 -12.546875 6.628906 -12.304688 5.796875 -11.828125 C 4.960938 -11.347656 4.304688 -10.660156 3.828125 -9.765625 C 3.359375 -8.867188 3.125 -7.84375 3.125 -6.6875 C 3.125 -5.5 3.359375 -4.457031 3.828125 -3.5625 C 4.304688 -2.675781 4.960938 -1.988281 5.796875 -1.5 C 6.628906 -1.019531 7.5625 -0.78125 8.59375 -0.78125 C 9.675781 -0.78125 10.628906 -1.015625 11.453125 -1.484375 C 12.285156 -1.960938 12.929688 -2.644531 13.390625 -3.53125 C 13.847656 -4.414062 14.078125 -5.46875 14.078125 -6.6875 Z M 14.078125 -6.6875 "/></g></g><g style="fill:#373643;fill-opacity:1;"><g transform="translate(329.065009, 235.23325)"><path style="stroke:none" d="M 2.578125 -16.3125 C 2.316406 -16.3125 2.09375 -16.394531 1.90625 -16.5625 C 1.726562 -16.738281 1.640625 -16.972656 1.640625 -17.265625 C 1.640625 -17.546875 1.726562 -17.773438 1.90625 -17.953125 C 2.09375 -18.128906 2.316406 -18.21875 2.578125 -18.21875 C 2.835938 -18.21875 3.054688 -18.128906 3.234375 -17.953125 C 3.421875 -17.773438 3.515625 -17.546875 3.515625 -17.265625 C 3.515625 -16.972656 3.421875 -16.738281 3.234375 -16.5625 C 3.054688 -16.394531 2.835938 -16.3125 2.578125 -16.3125 Z M 3.125 -13.34375 L 3.125 0 L 2.015625 0 L 2.015625 -13.34375 Z M 3.125 -13.34375 "/></g></g><g style="fill:#373643;fill-opacity:1;"><g transform="translate(333.289787, 235.23325)"><path style="stroke:none" d="M 3.125 -18.171875 L 3.125 0 L 2.015625 0 L 2.015625 -18.171875 Z M 3.125 -18.171875 "/></g></g><g style="fill:#373643;fill-opacity:1;"><g transform="translate(337.514564, 235.23325)"><path style="stroke:none" d="M 2.578125 -16.3125 C 2.316406 -16.3125 2.09375 -16.394531 1.90625 -16.5625 C 1.726562 -16.738281 1.640625 -16.972656 1.640625 -17.265625 C 1.640625 -17.546875 1.726562 -17.773438 1.90625 -17.953125 C 2.09375 -18.128906 2.316406 -18.21875 2.578125 -18.21875 C 2.835938 -18.21875 3.054688 -18.128906 3.234375 -17.953125 C 3.421875 -17.773438 3.515625 -17.546875 3.515625 -17.265625 C 3.515625 -16.972656 3.421875 -16.738281 3.234375 -16.5625 C 3.054688 -16.394531 2.835938 -16.3125 2.578125 -16.3125 Z M 3.125 -13.34375 L 3.125 0 L 2.015625 0 L 2.015625 -13.34375 Z M 3.125 -13.34375 "/></g></g><g style="fill:#373643;fill-opacity:1;"><g transform="translate(341.739341, 235.23325)"><path style="stroke:none" d="M 3.65625 -12.375 L 3.65625 -3.5625 C 3.65625 -2.582031 3.832031 -1.90625 4.1875 -1.53125 C 4.550781 -1.164062 5.191406 -0.984375 6.109375 -0.984375 L 7.609375 -0.984375 L 7.609375 0 L 5.9375 0 C 4.78125 0 3.925781 -0.269531 3.375 -0.8125 C 2.820312 -1.363281 2.546875 -2.28125 2.546875 -3.5625 L 2.546875 -12.375 L 0.546875 -12.375 L 0.546875 -13.34375 L 2.546875 -13.34375 L 2.546875 -16.734375 L 3.65625 -16.734375 L 3.65625 -13.34375 L 7.609375 -13.34375 L 7.609375 -12.375 Z M 3.65625 -12.375 "/></g></g><g style="fill:#373643;fill-opacity:1;"><g transform="translate(349.329516, 235.23325)"><path style="stroke:none" d="M 12.421875 -13.34375 L 4.671875 6.265625 L 3.53125 6.265625 L 6.015625 0 L 0.421875 -13.34375 L 1.625 -13.34375 L 6.625 -1.234375 L 11.296875 -13.34375 Z M 12.421875 -13.34375 "/></g></g></g></svg>